<svg id="Layer_1" data-name="Layer 1" xmlns="http://www.w3.org/2000/svg"
  xmlns:xlink="http://www.w3.org/1999/xlink" viewBox="0 0 1920 1080">
  <rect id="144126_home_play_practice" data-name="144126_home_play_practice" width="1920"
    height="1080" style="fill: none" />
  <image id="ref_image" data-name="ref image" width="1920" height="1080"
    xlink:href="031842_home_practice_competitive_casual_deathmatch.png" />
  <rect id="Dust_2" data-name="Dust 2" x="887" y="578.9" width="235" height="390"
    style="fill: #f0f;fill-opacity: 0.35000000000000003" />
  <rect id="Anubis" x="632.7" y="578.9" width="235" height="390"
    style="fill: #f0f;fill-opacity: 0.35000000000000003" />
  <rect id="Nuke" x="381.47" y="578.9" width="235" height="390"
    style="fill: #f0f;fill-opacity: 0.35000000000000003" />
  <rect id="Mirage" x="381.47" y="174.48" width="235" height="390"
    style="fill: #f0f;fill-opacity: 0.35000000000000003" />
  <rect id="Overpass" x="632.7" y="174.48" width="235" height="390"
    style="fill: #f0f;fill-opacity: 0.35000000000000003" />
  <rect id="Vertigo" x="887" y="174.48" width="235" height="390"
    style="fill: #f0f;fill-opacity: 0.35000000000000003" />
  <rect id="Ancient" x="1142.83" y="174.48" width="235" height="390"
    style="fill: #f0f;fill-opacity: 0.35000000000000003" />
  <rect id="Inferno" x="1394.06" y="174.48" width="235" height="390"
    style="fill: #f0f;fill-opacity: 0.35000000000000003" />
  <rect id="Office" x="1142.83" y="578.9" width="235" height="390"
    style="fill: #f0f;fill-opacity: 0.35000000000000003" />
  <rect id="Italy" x="1394.06" y="578.9" width="235" height="390"
    style="fill: #f0f;fill-opacity: 0.35000000000000003" />
  <rect id="GO_" data-name="GO " x="1536.45" y="1005.59" width="300" height="55" style="fill: aqua" />
  <rect id="Open_Party" data-name="Open Party" x="173.28" y="225.87" width="49.79" height="27.32"
    style="fill: blue;isolation: isolate;opacity: 0.4000000059604645" />
  <rect id="Grenade_Camera" data-name="Grenade Camera" x="173.28" y="261.11" width="49.79"
    height="27.32" style="fill: blue;isolation: isolate;opacity: 0.4000000059604645" />
  <rect id="Infinite_Ammo" data-name="Infinite Ammo" x="173.28" y="297.36" width="49.79"
    height="27.32" style="fill: blue;isolation: isolate;opacity: 0.4000000059604645" />
  <rect id="Infinite_Warmup" data-name="Infinite Warmup" x="173.28" y="333.62" width="49.79"
    height="27.32" style="fill: blue;isolation: isolate;opacity: 0.4000000059604645" />
  <rect id="Dashboard" width="64" height="64" style="fill: red;isolation: isolate;opacity: 0.5" />
  <rect id="Watch_Matches_and_Tournaments" data-name="Watch Matches and Tournaments" x="64"
    width="64" height="64" style="fill: red;isolation: isolate;opacity: 0.5" />
  <rect id="Settings" x="128" width="64" height="64"
    style="fill: red;isolation: isolate;opacity: 0.5" />
  <rect id="Quit_to_Desktop" data-name="Quit to Desktop" x="192" width="64" height="64"
    style="fill: red;isolation: isolate;opacity: 0.5" />
  <rect id="Inventory" x="668.07" y="6.19" width="122.81" height="55"
    style="fill: #ff0;isolation: isolate;opacity: 0.5" />
  <rect id="Matchmaking" x="755.14" y="67.47" width="106.93" height="42.04"
    style="fill: #ff0;isolation: isolate;opacity: 0.5" />
  <rect id="Premier" x="577.02" y="114.45" width="80.58" height="42.04"
    style="fill: #ff0;isolation: isolate;opacity: 0.5" />
  <rect id="Competitive" x="661.79" y="114.45" width="100.49" height="42.04"
    style="fill: #ff0;isolation: isolate;opacity: 0.5" />
  <rect id="Wingman" x="765.71" y="114.45" width="90.28" height="42.04"
    style="fill: #ff0;isolation: isolate;opacity: 0.5" />
  <rect id="Casual" x="861.42" y="114.45" width="78.82" height="42.04"
    style="fill: #ff0;isolation: isolate;opacity: 0.5" />
  <rect id="Deathmatch" x="945.42" y="114.45" width="110.73" height="42.04"
    style="fill: #ff0;isolation: isolate;opacity: 0.5" />
  <rect id="Private_Matchmaking" data-name="Private Matchmaking" x="1160.65" y="114.45"
    width="169.71" height="42.04" style="fill: #ff0;isolation: isolate;opacity: 0.5" />
  <rect id="Practice" x="863.67" y="67.47" width="99.68" height="42.04"
    style="fill: #ff0;isolation: isolate;opacity: 0.5" />
  <rect id="Workshop_Maps" data-name="Workshop Maps" x="965.67" y="67.47" width="124.19"
    height="42.04" style="fill: #ff0;isolation: isolate;opacity: 0.5" />
  <rect id="Loadout" x="797.01" y="6.19" width="117.96" height="55"
    style="fill: #ff0;isolation: isolate;opacity: 0.5" />
  <rect id="Play" x="920.07" y="6.19" width="117.96" height="55"
    style="fill: #ff0;isolation: isolate;opacity: 0.5" />
  <rect id="Store" x="1041.35" y="6.19" width="103.66" height="55"
    style="fill: #ff0;isolation: isolate;opacity: 0.5" />
  <rect id="News" x="1148.84" y="6.19" width="87.32" height="55"
    style="fill: #ff0;isolation: isolate;opacity: 0.5" />
  <rect id="Arms_Race" data-name="Arms Race" x="1060.15" y="114.45" width="96.33" height="42.04"
    style="fill: #ff0;isolation: isolate;opacity: 0.5" />
</svg>